<svg width="9" height="12" viewBox="0 0 9 12" fill="none" xmlns="http://www.w3.org/2000/svg">
<path d="M7.71156 6.51805C7.06012 6.07627 6.22008 5.80558 5.45019 5.59327V2.51434C6.04508 2.59149 6.5484 2.76377 6.90469 2.97655C7.27583 3.1982 7.47331 3.45451 7.47331 3.68297C7.47331 4.05477 7.78206 4.354 8.16027 4.354C8.53848 4.354 8.84722 4.05477 8.84722 3.68297C8.84722 3.02739 8.47315 2.44126 7.85886 1.99805C7.25403 1.56168 6.41271 1.26062 5.45019 1.16281V1.13678C5.45019 0.764974 5.14144 0.465747 4.76323 0.465747C4.38502 0.465747 4.07628 0.764974 4.07628 1.13678V1.16281C3.11375 1.26062 2.27243 1.56168 1.66761 1.99805C1.05331 2.44126 0.679248 3.02739 0.679248 3.68297C0.679248 4.61049 1.15075 5.24139 1.81488 5.69179C2.46631 6.13358 3.30635 6.40428 4.07628 6.6166V9.69553C3.48139 9.61838 2.97807 9.44609 2.62178 9.23332C2.25063 9.01166 2.05315 8.75536 2.05315 8.52689C2.05315 8.15509 1.74441 7.85586 1.3662 7.85586C0.987991 7.85586 0.679248 8.15509 0.679248 8.52689C0.679248 9.18248 1.05331 9.7686 1.66761 10.2118C2.27243 10.6482 3.11375 10.9492 4.07628 11.0471V11.0731C4.07628 11.4449 4.38502 11.7441 4.76323 11.7441C5.14144 11.7441 5.45019 11.4449 5.45019 11.0731V11.0471C6.41271 10.9492 7.25403 10.6482 7.85886 10.2118C8.47315 9.7686 8.84722 9.18248 8.84722 8.52689C8.84722 7.59934 8.3757 6.96844 7.71156 6.51805ZM4.07628 2.51434V5.21051C3.32859 4.97821 2.82483 4.75702 2.50666 4.51564C2.18275 4.26991 2.05315 4.00506 2.05315 3.68297C2.05315 3.45451 2.25063 3.1982 2.62178 2.97655C2.97807 2.76377 3.48139 2.59149 4.07628 2.51434ZM6.90466 9.23339C6.54836 9.44617 6.04504 9.61845 5.45019 9.69561V6.99943C6.19788 7.23169 6.70163 7.45288 7.01981 7.69427C7.34372 7.94001 7.47331 8.20488 7.47331 8.52697C7.47331 8.75543 7.27582 9.01174 6.90466 9.23339Z" fill="white" stroke="white" stroke-width="0.1"/>
</svg>
