<svg width="6" height="3" viewBox="0 0 6 3" fill="none" xmlns="http://www.w3.org/2000/svg">
<path d="M0.411571 1.88285L0.411572 1.88284C0.814996 0.828062 1.88079 0.121753 3.0621 0.121753C4.24334 0.121753 5.30929 0.828132 5.71248 1.88284C5.71248 1.88285 5.71248 1.88285 5.71248 1.88285L5.66578 1.9007C5.78867 2.222 5.62109 2.5797 5.29148 2.69952L0.411571 1.88285ZM0.411571 1.88285C0.278372 2.23117 0.460497 2.61747 0.815489 2.74651M0.411571 1.88285L0.815489 2.74651M0.815489 2.74651C1.17001 2.87551 1.5657 2.7001 1.69857 2.35244L0.815489 2.74651ZM5.06906 2.78882C5.14876 2.78882 5.2297 2.7752 5.30856 2.74651L1.69857 2.35243C1.90111 1.82287 2.44794 1.46381 3.06203 1.46381C3.67612 1.46381 4.22303 1.82288 4.42548 2.35244C4.52888 2.6229 4.79128 2.78882 5.06906 2.78882Z" fill="white" stroke="white" stroke-width="0.1"/>
</svg>
